<svg height="32" viewBox="0 0 32.000001 31.999999" width="32" xmlns="http://www.w3.org/2000/svg"><g fill="#fff" transform="matrix(.65711919 0 0 .65711919 66.009347 .227893)"><path d="m-86.165 11.671h4.129l-1.588 3.613a15.373 15.373 0 0 1 7.108-1.667 15.955 15.955 0 0 1 6.392 1.231c.715.317 1.35.6 1.946.913l-4.447-10.4h-13.54a4.944 4.944 0 0 0 -3.335.873 2.967 2.967 0 0 0 -.953 2.264 2.851 2.851 0 0 0 .953 2.263 5 5 0 0 0 3.335.91z"/><path d="m-55.988 36.964c-.437-.4-1.429-.556-2.978-.556l-1.588-3.653h-6.746l.873 2.1c-.238.079-.516.119-.834.2h-.039a35.014 35.014 0 0 1 -8.418 1.35 11.5 11.5 0 0 1 -6.155-1.389 12.843 12.843 0 0 1 -2.3-1.549l-.992 2.3 1.548-3.653h22.077l-.04-3.137a12.649 12.649 0 0 0 -.92-4.917 16.814 16.814 0 0 0 -3.335-5.123 9.271 9.271 0 0 0 -2.422-1.707 17.75 17.75 0 0 0 -1.946-.913 16.1 16.1 0 0 0 -6.397-1.231 15.357 15.357 0 0 0 -7.1 1.668 17.568 17.568 0 0 0 -3.177 2.1 12.268 12.268 0 0 0 -4.447 9.808 13.763 13.763 0 0 0 .6 4.089 12.428 12.428 0 0 0 3.534 5.48 13.444 13.444 0 0 0 6.19 3.339 20.16 20.16 0 0 0 4.8.556 35.4 35.4 0 0 0 5.321-.4c.993-.159 1.985-.318 3.018-.556 2.9-.635 4.685-1.27 5.439-1.985a2.5 2.5 0 0 0 .834-1.906 2.752 2.752 0 0 0 -.794-2.025l-.159-.159a2.82 2.82 0 0 1 1.39.754 2.886 2.886 0 0 1 .794 2.025 2.5 2.5 0 0 1 -.834 1.906c-.754.675-2.541 1.35-5.439 1.986-1.033.238-2.025.4-3.018.556a7.5 7.5 0 0 0 2.3.317h8.3a4.823 4.823 0 0 0 3.295-.873 2.967 2.967 0 0 0 .953-2.264 3.139 3.139 0 0 0 -1.188-2.538zm-25.412-14.89a8.859 8.859 0 0 1 2.541-.953 12.685 12.685 0 0 1 2.5-.278 11.881 11.881 0 0 1 3.217.437 7.174 7.174 0 0 1 1.866.794 8.929 8.929 0 0 1 3.454 3.614h-17.072a9.021 9.021 0 0 1 3.494-3.614z"/><path d="m-91.843 33.391-1.31 2.978a4.825 4.825 0 0 0 -3.3.873 2.97 2.97 0 0 0 -.953 2.263 2.856 2.856 0 0 0 .953 2.264 4.825 4.825 0 0 0 3.3.873h8.3a6.215 6.215 0 0 0 2.7-.476 13.455 13.455 0 0 1 -6.194-3.336 12.347 12.347 0 0 1 -3.496-5.439z"/></g></svg>