<svg height="32" viewBox="0 0 32 32" width="32" xmlns="http://www.w3.org/2000/svg" xmlns:xlink="http://www.w3.org/1999/xlink"><clipPath id="a"><path d="m0 2h130v120h-130z"/></clipPath><g fill="#fff"><g clip-path="url(#a)" transform="matrix(.20768415377 0 0 -.20768415377 2.70696814049 32.07927130735)"><path d="m111.988 113.988c-2.218 5-6.328 8.012-10.738 8.012h-75.2305c-4.4179 0-8.0078-3.012-10-8.012l-16.0195-55.8591v-44.1406c0-2.1875 1.80078-3.9766 3.98047-3.9766h119.99953c2.231 0 4.032 1.7891 4.032 3.9766v43.6328zm-88.4372-2.648c.3984.82 1.3281 2.648 2.4687 2.648h75.2305c1.09 0 2.34-1.129 3.238-2.847l15.082-53.1215h-35.5895c-2.1797 0-3.9805-1.8007-3.9805-4.0312v-11.9883h-31.9883v11.9883c0 2.2305-1.8008 4.0312-4.0312 4.0312h-35.69925zm96.4492-93.3205h-111.98828v31.9922h31.98828v-11.9922c0-2.2304 1.8008-4.0312 3.9805-4.0312h40c2.2304 0 4.0312 1.8008 4.0312 4.0312v11.9922h31.9883z" fill="#fff"/></g><path d="m479.046 283.925c-1.664-3.989-5.547-6.592-9.856-6.592h-116.885v-266.666c0-5.888-4.779-10.667-10.667-10.667h-170.667c-5.888 0-10.667 4.779-10.667 10.667v266.667h-117.333c-4.309 0-8.192 2.603-9.856 6.571-1.643 3.989-.747 8.576 2.304 11.627l212.8 213.504c2.005 2.005 4.715 3.136 7.552 3.136s5.547-1.131 7.552-3.115l213.419-213.504c3.051-3.052 3.968-7.638 2.304-11.628z" transform="matrix(.03064079113 0 0 .03064079113 8.15334765961 1.99999974167)"/></g></svg>