<svg height="34" viewBox="0 0 24 34" width="24" xmlns="http://www.w3.org/2000/svg"><g stroke-width="1.333333" transform="matrix(.06159624 0 0 .06159624 -44.140382 11.16092)"><path d="m1061.4637 78.412063c-1.8072-28.84792-7.0115-55.13151-15.4455-78.00578036-2.2418-6.08017004-4.2665-11.24531964-4.4992-11.47808964-2.5476 3.179218-3.7006 6.2008319-5.6615 10.16408964l-4.4425-10.50919964c-11.5722-20.12798-21.5582-41.168738-37.52661-59.46999-24.50456-27.526441-60.35708-52.626943-94.06487-65.855233-24.65965-9.67743-53.84904-15.90326-75.06134-16.00988-9.29723-.0467-9.8126-.19561-7.33334-2.11847 4.45489-3.4551 24.73755-13.29513 35.02178-16.99062 18.95044-6.80959 34.90004-9.33372 58.97822-9.33372 17.61647 0 24.71878.58304 35.6449 2.92615 35.85556 7.68925 64.70396 23.28982 90.39666 48.88454 34.7449 34.612368 52.3977 76.948843 52.5374 126.0000026-.3878 31.4362194-5.552 70.2336384-26.533 95.1295304-.6077.62124-1.5127-5.37876-2.0111-13.33333zm-70.7846 49.201057c-.0703-24.5192-.52864-31.056337-2.96816-42.330597-3.22993-14.92713-10.64188-36.927397-10.84839-33s-3.16251 3.971109-4.44736 6.36956c-1.72178 3.28615-1.87512 3.09638-6.19431-7.66666-26.66897-64.932113-87.6161-114.068759-156.65329-130.607943-10.62336-2.268043-18.19454-2.891936-35.80541-2.950506-12.28334-.04085-22.33334-.182422-22.33334-.314605 8.01662-14.611292 17.38973-28.360209 27.97118-41.163179l27.01441.0693c42.18551.10819 68.51924 6.14009 104.34775 23.90151 29.46164 14.605149 52.82986 33.132963 72.34859 57.362553 23.76193 27.183508 38.78483 66.91908 45.64093 98.66666 4.3122 27.855563 3.6711 42.483314 4.3113 71.507867-8.2049 7.91488-32.536 27.84882-41.19183 29.15607-.60995-.001-1.14638-13.0515-1.19207-29zm-69.15674 33.51162c-.5283-7.97988-1.83056-19.60888-2.89388-25.84222-2.31173-13.55173-9.95738-38.828967-10.88898-35.999997-.80255 2.437037-4.38054 6.666667-5.63959 6.666667-6.06008-13.764098-13.4302-28.72171-21.03409-42.483317-33.89253-42.792326-84.45432-77.191744-136.52935-75.15147-8.40961.4795-11.90378.25634-11.29936-.72165-1.66373-13.343984 2.15006-28.762747 7.52378-41.96613l29.00064.6999c22.6898.5476 31.90212 1.32574 42.33398 3.57579 73.74659 14.140493 126.5026 71.027037 145.45899 142.71355 4.77841 25.755617 6.40628 50.969977 3.87434 76.666657-12.94016 3.67272-27.40109 5.34835-38.94589 6.3511z" fill="#4b94c6"/><path d="m875.42884 172.67654c-62.3237-13.29894-113.4186-58.7096-133.28452-118.456817-4.19621-12.6202-8.04881-29.87212-8.04881-36.04254 0-3.66383.38556-3.93559 6.78856-4.78498 74.26257-.902659 145.86778 87.498477 153.84647 150.890317l.88157 11c-6.99677.0287-14.23274-1.3498-20.18327-2.60602z" fill="#a2a3a7"/></g><g fill="#fff" stroke-width=".476727" transform="matrix(1.2610764 0 0 1.2610764 -1.87184 -3.832296)"><path d="m3.515754 26.491584q-.3612699 0-.5661137.230915-.2048438.22719-.2346392.648051h1.5940569q-.0074489-.420861-.2197415-.648051-.2122926-.230915-.5735625-.230915zm.1601506 3.508415q-1.0055967 0-1.5717104-.55494-.5661137-.554941-.5661137-1.571711 0-1.046565.5214205-1.616403.5251449-.573563 1.4488041-.573563.8826904 0 1.3743154.502799.4916251.502798.4916251 1.389213v.551216h-2.6853156q.018622.484176.2867813.756059.2681591.271884.7523353.271884.3761676 0 .7113665-.07821.3351989-.07821.7001933-.249537v.878966q-.2979546.148977-.6368779.219741-.3389233.07449-.8268239.07449z"/><path d="m7.5418649 27.0428h.3798921q.5325938 0 .7970285-.208568.2644347-.212293.2644347-.614532 0-.405963-.223466-.599633-.2197415-.193671-.6927443-.193671h-.525145zm2.6071021-.864068q0 .878966-.5512155 1.34452-.5474916.465554-1.5605371.465554h-.4953495v1.936704h-1.1545739v-5.445119h1.7393098q.9906989 0 1.5046705.428309.5176957.424586.5176957 1.270032z"/><path d="m16.119232 27.195502q0 1.351969-.670397 2.078233-.670398.726264-1.921807.726264-1.25141 0-1.921807-.726264-.670398-.726264-.670398-2.085682 0-1.359418.670398-2.074509.674122-.718815 1.929255-.718815 1.255134 0 1.918083.72254.666673.722539.666673 2.078233zm-3.973969 0q0 .912486.346372 1.374315.346373.46183 1.035393.46183 1.381764 0 1.381764-1.836145 0-1.83987-1.374316-1.83987-.68902 0-1.039116.465554-.350097.46183-.350097 1.374316z"/><path d="m20.461919 28.413391q0 .737438-.532593 1.162023-.52887.424585-1.474875.424585-.871518 0-1.541915-.32775v-1.072636q.551216.245812.931108.346372.383616.100559.700193.100559.379892 0 .581011-.145252.204844-.145253.204844-.432035 0-.16015-.08939-.283056-.08939-.126631-.264435-.242088-.171324-.115458-.703918-.368719-.499073-.234639-.74861-.450657-.249537-.216017-.398515-.502798-.148977-.286781-.148977-.670398 0-.722539.487901-1.135951.491625-.413412 1.355693-.413412.424585 0 .808202.100559.387341.10056.808201.283057l-.372443.897588q-.435758-.178772-.72254-.249537-.283056-.07076-.558664-.07076-.32775 0-.502799.152702-.175048.152702-.175048.398514 0 .152702.07076.268159.07076.111733.223466.219742.156426.104284.733713.379892.763509.364994 1.046566.733713.283056.364994.283056.897588z"/></g></svg>