<svg height="32" viewBox="0 0 32 31.999999" width="32" xmlns="http://www.w3.org/2000/svg"><g fill="#fff" transform="matrix(.70443867 0 0 .70443867 -785.31026 -278.79559)"><path d="m1144.436 419.114v-7.214h5.85a.514.514 0 0 0 .513-.514v-8.386a3.7 3.7 0 0 0 -3.521-3.691h-22.178a4.17 4.17 0 0 0 -4.166 4.166v29.562a.514.514 0 0 0 .834.4l2.489-1.991 2.488 1.991a.514.514 0 0 0 .642 0l2.488-1.991 2.488 1.991a.514.514 0 0 0 .642 0l2.489-1.991 1.471 1.178a1.92 1.92 0 0 1 -.191-1.564l-.96-.673a.514.514 0 0 0 -.642 0l-2.488 1.991-2.488-1.991a.514.514 0 0 0 -.642 0l-2.488 1.991-2.488-1.991a.514.514 0 0 0 -.642 0l-1.975 1.58v-28.494a3.142 3.142 0 0 1 3.139-3.139h19.448a3.686 3.686 0 0 0 -1.143 2.668v15.331l.021 1.369m6.342-16.7v7.869h-5.336v-7.871a2.668 2.668 0 0 1 5.336 0z" stroke="#fff" stroke-width="1.4"/><path d="m1153.1554 423.49124h-2.2408v-4.06972a.70342502.70342502 0 0 0 -.7035-.70343h-11.9455a.70469245.70469245 0 0 0 -.7047.70343v4.07479h-2.2446a1.6476622 1.6476622 0 0 0 -1.6477 1.64766v7.08242a1.6476622 1.6476622 0 0 0 1.6477 1.64766h2.2395v3.77821a.70469245.70469245 0 0 0 .7047.7047h11.9456a.70342502.70342502 0 0 0 .7034-.7047v-3.77821h2.2408a1.6476622 1.6476622 0 0 0 1.6477-1.64766v-7.08242a1.6476622 1.6476622 0 0 0 -1.6426-1.65273zm-14.1864-3.3701h10.5425v3.3701h-10.5387zm10.5425 16.81249h-10.5374v-5.75921h10.5374zm.7047-9.30929h-1.7922a.70406.70406 0 0 1 0-1.40812h1.7922a.70406.70406 0 0 1 0 1.40812z" stroke-width="1.267432"/></g></svg>