<?xml version="1.0" encoding="UTF-8"?>
<svg version="1.1" xmlns="http://www.w3.org/2000/svg" width="200" height="194">
<path d="M0 0 C66 0 132 0 200 0 C200 64.02 200 128.04 200 194 C134 194 68 194 0 194 C0 129.98 0 65.96 0 0 Z " fill="#50B351" transform="translate(0,0)"/>
<path d="M0 0 C0.33 0 0.66 0 1 0 C1.33 16.5 1.66 33 2 50 C48.53 50.495 48.53 50.495 96 51 C96 40.77 96 30.54 96 20 C98 16 98 16 100.125 15.25 C101.053125 15.12625 101.053125 15.12625 102 15 C102.99 16.65 103.98 18.3 105 20 C104.67 20.33 104.34 20.66 104 21 C103.84313751 22.55948542 103.74923361 24.12542668 103.68359375 25.69140625 C103.64169922 26.63564453 103.59980469 27.57988281 103.55664062 28.55273438 C103.51732422 29.54595703 103.47800781 30.53917969 103.4375 31.5625 C103.37272461 33.05813477 103.37272461 33.05813477 103.30664062 34.58398438 C103.20019702 37.0558415 103.09818072 39.5278031 103 42 C104.91425781 41.94779297 104.91425781 41.94779297 106.8671875 41.89453125 C108.53644521 41.86639769 110.2057171 41.83909707 111.875 41.8125 C112.71675781 41.78736328 113.55851563 41.76222656 114.42578125 41.73632812 C115.23144531 41.72666016 116.03710938 41.71699219 116.8671875 41.70703125 C117.61081543 41.6913208 118.35444336 41.67561035 119.12060547 41.65942383 C119.74080566 41.77181396 120.36100586 41.8842041 121 42 C121.66 42.99 122.32 43.98 123 45 C116.4 45 109.8 45 103 45 C103 56.55 103 68.1 103 80 C104.65 80 106.3 80 108 80 C108.3403125 78.63875 108.3403125 78.63875 108.6875 77.25 C110.6137218 72.48030793 113.83297445 70.77801703 118 68 C124.37752326 67.2913863 130.65875397 67.0917712 136 71 C137.96276279 72.91565649 139.39425299 74.73306304 141 77 C141 77.99 141 78.98 141 80 C142.65 80 144.3 80 146 80 C144.4114658 84.28904235 141.56872632 86.32345526 138 89 C137.34 89 136.68 89 136 89 C135.91363281 88.39671875 135.82726562 87.7934375 135.73828125 87.171875 C135.04641138 83.23646837 134.47702598 80.59266864 131.9375 77.4375 C127.90099973 75.46219136 124.41426667 75.15840149 120 76 C117.49839182 77.87620613 116.38054348 79.23891303 115 82 C114.37127913 87.85686009 114.37127913 87.85686009 117.0625 92.875 C120.46960009 95.3397107 122.92564194 96.12121689 127 97 C126.34 97.99 125.68 98.98 125 100 C124.34 100 123.68 100 123 100 C123 100.66 123 101.32 123 102 C122.34 102 121.68 102 121 102 C121 102.66 121 103.32 121 104 C117.53846154 107 117.53846154 107 115 107 C115 107.66 115 108.32 115 109 C110.52941176 113 110.52941176 113 108 113 C108 113.66 108 114.32 108 115 C106.30725716 116.56432787 104.54430148 118.05328572 102.75 119.5 C101.77546875 120.2940625 100.8009375 121.088125 99.796875 121.90625 C97.55105238 123.58748034 95.5534197 124.88135899 93 126 C93 126.66 93 127.32 93 128 C89.53846154 131 89.53846154 131 87 131 C87 131.66 87 132.32 87 133 C85.13671875 134.69140625 85.13671875 134.69140625 82.6875 136.5625 C81.88699219 137.18253906 81.08648437 137.80257812 80.26171875 138.44140625 C78 140 78 140 75 141 C75 141.66 75 142.32 75 143 C73.44234505 145.03210817 72.53735122 145.90126286 69.9910326 146.36914349 C68.83372151 146.36499542 68.83372151 146.36499542 67.6530304 146.36076355 C66.32161514 146.36694954 66.32161514 146.36694954 64.96330261 146.3732605 C63.99226089 146.36247467 63.02121918 146.35168884 62.02075195 146.34057617 C60.99618896 146.34101425 59.97162598 146.34145233 58.91601562 146.34190369 C55.52324489 146.33981059 52.13096586 146.31645451 48.73828125 146.29296875 C46.38844574 146.28737466 44.03860674 146.28310368 41.68876648 146.28010559 C35.49907804 146.26864214 29.30960024 146.23916186 23.11999512 146.20599365 C16.80593719 146.1753252 10.49184529 146.16160714 4.17773438 146.14648438 C-8.21493638 146.11429376 -20.60745069 146.06307915 -33 146 C-33.09266923 134.09111027 -33.16374957 122.18230628 -33.20724869 110.27312946 C-33.22812584 104.74323608 -33.2564462 99.21358933 -33.30175781 93.68383789 C-33.34521042 88.34757754 -33.36913614 83.01155446 -33.37950897 77.67513084 C-33.38690135 75.63894096 -33.40133688 73.6027641 -33.42292023 71.56667519 C-33.45194616 68.71514419 -33.45595631 65.86459434 -33.45410156 63.01293945 C-33.46848267 62.17064789 -33.48286377 61.32835632 -33.49768066 60.46054077 C-33.46130335 55.29386341 -32.73225891 52.84647828 -29 49 C-27.75983331 46.3205355 -27.75983331 46.3205355 -27 44 C-26.34 44 -25.68 44 -25 44 C-24.88205078 43.22849609 -24.88205078 43.22849609 -24.76171875 42.44140625 C-23.67193109 38.94849709 -21.73189116 36.02306906 -19.8125 32.9375 C-17.08995975 28.49193478 -14.436148 24.04902522 -12 19.4375 C-9.58497115 14.93398142 -6.93881932 10.61549843 -4.1875 6.3125 C-3.78982422 5.68722412 -3.39214844 5.06194824 -2.98242188 4.41772461 C-2.01732024 2.92595681 -1.01244417 1.46005107 0 0 Z " fill="#3F843E" transform="translate(33,48)"/>
<path d="M0 0 C34.65 0 69.3 0 105 0 C105 5.94 105 11.88 105 18 C102.03 18.66 99.06 19.32 96 20 C93.16580175 31.33679301 94.37676205 43.32037647 94 55 C62.98 55 31.96 55 0 55 C0 36.85 0 18.7 0 0 Z " fill="#FEFEFE" transform="translate(35,44)"/>
<path d="M0 0 C32.34 0 64.68 0 98 0 C98 7.26 98 14.52 98 22 C90.2771703 22.19792368 82.55581959 22.34301411 74.83105469 22.43945312 C72.20416548 22.4796573 69.57745497 22.5342309 66.95117188 22.60351562 C63.1727288 22.70069192 59.39665311 22.74595988 55.6171875 22.78125 C54.44509735 22.82254028 53.2730072 22.86383057 52.06539917 22.90637207 C44.04285454 22.91077623 44.04285454 22.91077623 40.98028564 20.23608398 C39.37939453 18.07617187 39.37939453 18.07617187 38.13137817 15.91784668 C36.29811341 12.81020256 34.40325585 12.02739799 31 11 C26.2016797 10.5045982 21.76627069 10.37199264 17.1875 12 C15.04904315 13.95516055 13.78319785 15.78970935 12.1875 18.1875 C9.62000198 21.83816125 9.62000198 21.83816125 6.875 22.5546875 C4.6875 22.5625 4.6875 22.5625 1 22 C0.67 21.67 0.34 21.34 0 21 C0 14.07 0 7.14 0 0 Z " fill="#F8FCF8" transform="translate(31,106)"/>
<path d="M0 0 C5.548125 -0.103125 11.09625 -0.20625 16.8125 -0.3125 C19.40315308 -0.38078003 19.40315308 -0.38078003 22.04614258 -0.45043945 C31.09278746 -0.58592101 38.05525323 0.1312765 46 5 C46.02465746 9.1117256 46.04283959 13.22342278 46.05493164 17.33520508 C46.0599708 18.73495228 46.06680216 20.1346942 46.07543945 21.53442383 C46.0875232 23.54245777 46.09269807 25.55052957 46.09765625 27.55859375 C46.10289307 28.76829834 46.10812988 29.97800293 46.11352539 31.22436523 C46 34 46 34 45 35 C42.66702567 35.04092937 40.33294775 35.04241723 38 35 C37.443125 33.906875 36.88625 32.81375 36.3125 31.6875 C34.39279194 28.30580786 32.56851097 26.6903473 29 25 C28.34 24.67 27.68 24.34 27 24 C21.39654707 23.40479256 15.78650145 22.87845826 10.9375 26.125 C8.00124528 28.62439731 6.42098713 31.40573844 5 35 C3.35 35 1.7 35 0 35 C0 23.45 0 11.9 0 0 Z " fill="#FBFDFB" transform="translate(136,93)"/>
<path d="M0 0 C2.0625 0.75 2.0625 0.75 4 2 C4.495 3.485 4.495 3.485 5 5 C4.67 5.33 4.34 5.66 4 6 C3.84313751 7.55948542 3.74923361 9.12542668 3.68359375 10.69140625 C3.64169922 11.63564453 3.59980469 12.57988281 3.55664062 13.55273438 C3.51732422 14.54595703 3.47800781 15.53917969 3.4375 16.5625 C3.37272461 18.05813477 3.37272461 18.05813477 3.30664062 19.58398438 C3.20019702 22.0558415 3.09818072 24.5278031 3 27 C4.91425781 26.94779297 4.91425781 26.94779297 6.8671875 26.89453125 C8.53644521 26.86639769 10.2057171 26.83909707 11.875 26.8125 C12.71675781 26.78736328 13.55851562 26.76222656 14.42578125 26.73632812 C15.23144531 26.72666016 16.03710938 26.71699219 16.8671875 26.70703125 C17.61081543 26.6913208 18.35444336 26.67561035 19.12060547 26.65942383 C19.74080566 26.77181396 20.36100586 26.8842041 21 27 C21.99 28.485 21.99 28.485 23 30 C16.4 30 9.8 30 3 30 C3 40.89 3 51.78 3 63 C2.67 63 2.34 63 2 63 C1.505 55.575 1.505 55.575 1 48 C-0.58272601 49.58272601 -0.34735747 51.38034003 -0.5625 53.5625 C-0.68818359 54.80193359 -0.68818359 54.80193359 -0.81640625 56.06640625 C-0.87699219 56.70449219 -0.93757813 57.34257813 -1 58 C-1.66 58 -2.32 58 -3 58 C-3 59.98 -3 61.96 -3 64 C-3.33 64 -3.66 64 -4 64 C-4 57.07 -4 50.14 -4 43 C-36.01 43 -68.02 43 -101 43 C-101 42.67 -101 42.34 -101 42 C-53.48 41.505 -53.48 41.505 -5 41 C-5 40.01 -5 39.02 -5 38 C-35.69 37.67 -66.38 37.34 -98 37 C-98 36.67 -98 36.34 -98 36 C-66.98 36 -35.96 36 -4 36 C-4 25.77 -4 15.54 -4 5 C-2 1 -2 1 0 0 Z " fill="#548754" transform="translate(133,63)"/>
<path d="M0 0 C7.59 0 15.18 0 23 0 C24.485 3.09375 25.97 6.1875 27.5 9.375 C27.96986328 10.34872559 28.43972656 11.32245117 28.92382812 12.32568359 C29.28927734 13.09219238 29.65472656 13.85870117 30.03125 14.6484375 C30.40830078 15.43395996 30.78535156 16.21948242 31.17382812 17.02880859 C32 19 32 19 32 21 C21.44 21 10.88 21 0 21 C0 14.07 0 7.14 0 0 Z " fill="#F8FDF8" transform="translate(136,69)"/>
<path d="M0 0 C36.66666667 0 73.33333333 0 110 0 C110.495 1.485 110.495 1.485 111 3 C108.63351117 4.18324441 107.2226868 4.12326046 104.58346558 4.12025452 C103.19100616 4.12231651 103.19100616 4.12231651 101.77041626 4.12442017 C100.74902557 4.12082489 99.72763489 4.11722961 98.67529297 4.11352539 C97.06551575 4.11374443 97.06551575 4.11374443 95.42321777 4.1139679 C91.86285405 4.11326917 88.30254213 4.10547861 84.7421875 4.09765625 C82.27881906 4.09579193 79.81545024 4.09436809 77.3520813 4.09336853 C70.85832705 4.08954446 64.36459505 4.07971511 57.87084961 4.06866455 C51.24853822 4.05844806 44.62622324 4.0538704 38.00390625 4.04882812 C25.00259466 4.03809276 12.00129851 4.021209 -1 4 C-0.67 2.68 -0.34 1.36 0 0 Z " fill="#4AAF4A" transform="translate(33,40)"/>
<path d="M0 0 C3.02508145 1.73602105 5.41790069 3.83580137 7 7 C7.67660495 12.86390959 7.67660495 12.86390959 5.953125 15.7578125 C3.59013633 18.6350987 1.77666886 20.7556644 -1.98828125 21.2734375 C-6.48027315 21.46972622 -8.34969305 21.51482633 -12 18.625 C-14.77904857 14.97749875 -15.39319564 12.68940028 -15.359375 8.0390625 C-14.7567698 4.61993302 -12.63213933 3.06810948 -10 1 C-6.77140153 -0.61429923 -3.49006347 -0.59570657 0 0 Z " fill="#FCFDFB" transform="translate(61,123)"/>
<path d="M0 0 C3.12335325 1.25061096 3.79559363 2.17383799 6 5 C7.04906942 9.96071584 6.78130746 13.72386448 4.125 18.0625 C0.56729402 21.30629075 -2.07412967 21.33052231 -6.73828125 21.29296875 C-10.0542278 20.86344199 -11.74987627 19.39075646 -14 17 C-15.59561887 13.80876226 -15.3799142 10.47254909 -15 7 C-11.8211358 0.03677366 -7.13179984 -1.12798875 0 0 Z " fill="#F9FCF9" transform="translate(162,123)"/>
<path d="M0 0 C34.65 0 69.3 0 105 0 C105 5.94 105 11.88 105 18 C101.58203125 18.5859375 101.58203125 18.5859375 98.1640625 19.171875 C95.82290908 19.81749261 95.82290908 19.81749261 94.7109375 22.078125 C94.47632813 22.71234375 94.24171875 23.3465625 94 24 C93.6875 21.75 93.6875 21.75 94 19 C96.25 16.6875 96.25 16.6875 99 15 C100.32 15 101.64 15 103 15 C102.67 10.38 102.34 5.76 102 1 C68.67 1 35.34 1 1 1 C1 18.16 1 35.32 1 53 C31.69 53.33 62.38 53.66 94 54 C94 54.33 94 54.66 94 55 C62.98 55 31.96 55 0 55 C0 36.85 0 18.7 0 0 Z " fill="#E3F8E3" transform="translate(35,44)"/>
<path d="M0 0 C2.81117911 -0.28621686 5.40115429 -0.37819403 8.21337891 -0.34057617 C9.0622316 -0.34101425 9.91108429 -0.34145233 10.78565979 -0.34190369 C13.59952568 -0.33980882 16.41280033 -0.31644515 19.2265625 -0.29296875 C21.17426223 -0.28737527 23.12196618 -0.283104 25.06967163 -0.28010559 C30.20230715 -0.26863727 35.334689 -0.23915304 40.46722412 -0.20599365 C45.70207284 -0.17533553 50.93696244 -0.16160937 56.171875 -0.14648438 C66.44802827 -0.11428521 76.72399306 -0.06306492 87 0 C87 0.99 87 1.98 87 3 C57.63 3 28.26 3 -2 3 C-1.34 2.01 -0.68 1.02 0 0 Z " fill="#358134" transform="translate(41,101)"/>
<path d="M0 0 C1.9375 0.8125 1.9375 0.8125 4 2 C4.33 2.99 4.66 3.98 5 5 C4.67 5.33 4.34 5.66 4 6 C3.84313751 7.55948542 3.74923361 9.12542668 3.68359375 10.69140625 C3.64169922 11.63564453 3.59980469 12.57988281 3.55664062 13.55273438 C3.51732422 14.54595703 3.47800781 15.53917969 3.4375 16.5625 C3.37272461 18.05813477 3.37272461 18.05813477 3.30664062 19.58398438 C3.20019702 22.0558415 3.09818072 24.5278031 3 27 C4.91425781 26.94779297 4.91425781 26.94779297 6.8671875 26.89453125 C8.53644521 26.86639769 10.2057171 26.83909707 11.875 26.8125 C12.71675781 26.78736328 13.55851562 26.76222656 14.42578125 26.73632812 C15.23144531 26.72666016 16.03710938 26.71699219 16.8671875 26.70703125 C17.61081543 26.6913208 18.35444336 26.67561035 19.12060547 26.65942383 C19.74080566 26.77181396 20.36100586 26.8842041 21 27 C21.66 27.99 22.32 28.98 23 30 C15.41 30.33 7.82 30.66 0 31 C0 28.69 0 26.38 0 24 C-0.99 23.67 -1.98 23.34 -3 23 C-3.55353075 7.25512528 -3.55353075 7.25512528 0 0 Z " fill="#408040" transform="translate(133,63)"/>
<path d="M0 0 C2.31 0 4.62 0 7 0 C7.33 0.99 7.66 1.98 8 3 C8.99 3.33 9.98 3.66 11 4 C11.08121924 5.60332791 11.13929134 7.20784026 11.1875 8.8125 C11.23970703 10.15248047 11.23970703 10.15248047 11.29296875 11.51953125 C10.94515736 14.46433437 10.21802102 15.13954408 8 17 C7.67 17.66 7.34 18.32 7 19 C5.87424616 21.25150768 4.99900524 22.46196271 3 24 C0.51953125 24.07421875 0.51953125 24.07421875 -2.1875 23.6875 C-3.08855469 23.56761719 -3.98960938 23.44773438 -4.91796875 23.32421875 C-5.60503906 23.21722656 -6.29210938 23.11023438 -7 23 C-7 22.67 -7 22.34 -7 22 C-6.39671875 21.91363281 -5.7934375 21.82726562 -5.171875 21.73828125 C-1.15310187 21.03175501 1.40863169 20.5048266 4.5625 17.8125 C6.41025364 14.19732984 6.57338452 12.01369164 6 8 C4.20437595 5.24670979 2.94745078 3.47372539 0 2 C0 1.34 0 0.68 0 0 Z " fill="#397E38" transform="translate(61,122)"/>
<path d="M0 0 C1.40378906 -0.02126953 1.40378906 -0.02126953 2.8359375 -0.04296875 C5.78618154 0.20081892 7.94864112 0.95637492 10.625 2.1875 C10.295 2.8475 9.965 3.5075 9.625 4.1875 C8.965 4.1875 8.305 4.1875 7.625 4.1875 C7.625 3.5275 7.625 2.8675 7.625 2.1875 C4.985 2.1875 2.345 2.1875 -0.375 2.1875 C0.12 2.64125 0.615 3.095 1.125 3.5625 C2.625 5.1875 2.625 5.1875 2.625 7.1875 C1.34625 7.496875 0.0675 7.80625 -1.25 8.125 C-3.47601675 8.66355244 -5.32239999 9.1612 -7.375 10.1875 C-8.035 9.5275 -8.695 8.8675 -9.375 8.1875 C-9.705 8.5175 -10.035 8.8475 -10.375 9.1875 C-14.095 12.1875 -14.095 12.1875 -16.375 12.1875 C-14.96438233 7.39139993 -12.20996828 4.27108773 -8.375 1.1875 C-5.33978606 0.17576202 -3.17766921 0.02176486 0 0 Z " fill="#437F42" transform="translate(56.375,115.8125)"/>
<path d="M0 0 C5.75 1.875 5.75 1.875 8 3 C8.02465746 7.1117256 8.04283959 11.22342278 8.05493164 15.33520508 C8.0599708 16.73495228 8.06680216 18.1346942 8.07543945 19.53442383 C8.0875232 21.54245777 8.09269807 23.55052957 8.09765625 25.55859375 C8.10289307 26.76829834 8.10812988 27.97800293 8.11352539 29.22436523 C8 32 8 32 7 33 C4.66702567 33.04092937 2.33294775 33.04241723 0 33 C0 32.67 0 32.34 0 32 C1.98 32 3.96 32 6 32 C6 23.75 6 15.5 6 7 C5.34 6.67 4.68 6.34 4 6 C4.66 6 5.32 6 6 6 C5.34 5.34 4.68 4.68 4 4 C3.01 4.495 3.01 4.495 2 5 C2 4.01 2 3.02 2 2 C1.34 2 0.68 2 0 2 C0 1.34 0 0.68 0 0 Z " fill="#DCF6DB" transform="translate(174,95)"/>
<path d="M0 0 C0.66 0 1.32 0 2 0 C2.33 6.6 2.66 13.2 3 20 C4.98 20.33 6.96 20.66 9 21 C9 21.33 9 21.66 9 22 C5.13013042 22.07442057 1.7264085 22.04702186 -2 21 C-2.05390357 18.06225537 -2.0936255 15.12549768 -2.125 12.1875 C-2.14175781 11.35412109 -2.15851562 10.52074219 -2.17578125 9.66210938 C-2.18222656 8.85966797 -2.18867188 8.05722656 -2.1953125 7.23046875 C-2.20578613 6.49207764 -2.21625977 5.75368652 -2.22705078 4.99291992 C-2 3 -2 3 0 0 Z " fill="#497F49" transform="translate(29,107)"/>
<path d="M0 0 C1.32 0.33 2.64 0.66 4 1 C4 1.66 4 2.32 4 3 C6.64 3 9.28 3 12 3 C10.4114658 7.28904235 7.56872632 9.32345526 4 12 C3.34 12 2.68 12 2 12 C1.34 8.04 0.68 4.08 0 0 Z " fill="#3E843C" transform="translate(167,125)"/>
<path d="M0 0 C0.99 0.66 1.98 1.32 3 2 C3 2.66 3 3.32 3 4 C3.66 4.66 4.32 5.32 5 6 C4.360625 6.61875 3.72125 7.2375 3.0625 7.875 C-0.03296298 11.06426489 -0.11807778 12.78993291 -0.0625 17.125 C-0.04896484 18.49011719 -0.04896484 18.49011719 -0.03515625 19.8828125 C-0.02355469 20.58148438 -0.01195312 21.28015625 0 22 C-2 20.625 -2 20.625 -4 19 C-4 18.34 -4 17.68 -4 17 C-3.34 17 -2.68 17 -2 17 C-2.20625 16.319375 -2.4125 15.63875 -2.625 14.9375 C-3.10063829 11.21166669 -2.17669149 8.53007446 -1 5 C-2.65 5.66 -4.3 6.32 -6 7 C-4.19587357 3.73539027 -3.16605307 2.11070205 0 0 Z " fill="#50864F" transform="translate(148,118)"/>
<path d="M0 0 C4.51617599 -0.07654536 8.59085217 -0.10228696 13 1 C13.33 1.99 13.66 2.98 14 4 C14.99 4.33 15.98 4.66 17 5 C17 5.66 17 6.32 17 7 C10.25 6.25 10.25 6.25 8 4 C5.77871445 3.97691403 5.77871445 3.97691403 3.375 4.375 C2.55773437 4.48585938 1.74046875 4.59671875 0.8984375 4.7109375 C0.27195313 4.80632812 -0.35453125 4.90171875 -1 5 C-0.67 3.35 -0.34 1.7 0 0 Z " fill="#357D34" transform="translate(153,117)"/>
<path d="M0 0 C1.98 0 3.96 0 6 0 C5.67 1.65 5.34 3.3 5 5 C11.6 5 18.2 5 25 5 C25 5.66 25 6.32 25 7 C17.74 7 10.48 7 3 7 C2.34 5.35 1.68 3.7 1 2 C0.67 1.34 0.34 0.68 0 0 Z " fill="#6FAF6E" transform="translate(134,62)"/>
<path d="M0 0 C2.95887459 -0.08069658 5.9155659 -0.14034665 8.875 -0.1875 C9.71675781 -0.21263672 10.55851563 -0.23777344 11.42578125 -0.26367188 C12.23144531 -0.27333984 13.03710938 -0.28300781 13.8671875 -0.29296875 C14.98262939 -0.31653442 14.98262939 -0.31653442 16.12060547 -0.34057617 C17.05090576 -0.17199097 17.05090576 -0.17199097 18 0 C18.66 0.99 19.32 1.98 20 3 C13.4 3 6.8 3 0 3 C0 2.01 0 1.02 0 0 Z " fill="#4B814E" transform="translate(136,90)"/>
<path d="M0 0 C0.33 0.99 0.66 1.98 1 3 C2.60681641 3.07347656 2.60681641 3.07347656 4.24609375 3.1484375 C5.64325639 3.22345294 7.0403905 3.2990013 8.4375 3.375 C9.14455078 3.4059375 9.85160156 3.436875 10.58007812 3.46875 C12.39239188 3.57280629 14.19817988 3.77919892 16 4 C16.33 4.66 16.66 5.32 17 6 C10.07 6 3.14 6 -4 6 C-4.33 5.34 -4.66 4.68 -5 4 C-4.34 4 -3.68 4 -3 4 C-3 3.34 -3 2.68 -3 2 C-2.01 1.34 -1.02 0.68 0 0 Z " fill="#44B244" transform="translate(143,60)"/>
<path d="M0 0 C2.20770805 -0.08165496 4.41630425 -0.13948488 6.625 -0.1875 C7.85476562 -0.22230469 9.08453125 -0.25710937 10.3515625 -0.29296875 C14.29853429 0.02397224 16.65367341 0.92487555 20 3 C20.33 3.66 20.66 4.32 21 5 C20.49726563 4.84273438 19.99453125 4.68546875 19.4765625 4.5234375 C15.47988831 3.67871456 11.38773621 3.67836801 7.3125 3.5703125 C5.3359375 3.4765625 5.3359375 3.4765625 2 3 C1.34 2.01 0.68 1.02 0 0 Z " fill="#64A968" transform="translate(154,90)"/>
<path d="M0 0 C1.08152344 -0.01417969 2.16304687 -0.02835937 3.27734375 -0.04296875 C6.0625 0.1875 6.0625 0.1875 8.0625 2.1875 C4.1025 1.8575 0.1425 1.5275 -3.9375 1.1875 C-3.6075 2.5075 -3.2775 3.8275 -2.9375 5.1875 C0.5275 4.6925 0.5275 4.6925 4.0625 4.1875 C4.0625 4.8475 4.0625 5.5075 4.0625 6.1875 C2.46023045 6.40995393 0.85553233 6.61496669 -0.75 6.8125 C-1.64332031 6.92851563 -2.53664062 7.04453125 -3.45703125 7.1640625 C-5.9375 7.1875 -5.9375 7.1875 -8.9375 5.1875 C-8.2775 4.8575 -7.6175 4.5275 -6.9375 4.1875 C-6.9375 3.1975 -6.9375 2.2075 -6.9375 1.1875 C-5.13003866 -0.61996134 -2.43304219 0.01446517 0 0 Z " fill="#478045" transform="translate(156.9375,115.8125)"/>
<path d="M0 0 C2.72869407 0.03287583 5.2966618 0.56397771 8 1 C8 1.66 8 2.32 8 3 C8.99 2.67 9.98 2.34 11 2 C11 2.99 11 3.98 11 5 C5.25 6 5.25 6 3 6 C3 5.34 3 4.68 3 4 C0.525 3.01 0.525 3.01 -2 2 C-1.34 1.34 -0.68 0.68 0 0 Z " fill="#357D37" transform="translate(56,117)"/>
<path d="M0 0 C-0.99 1.485 -0.99 1.485 -2 3 C-2.69996094 2.67515625 -3.39992187 2.3503125 -4.12109375 2.015625 C-7.28237191 0.9003844 -9.72007687 0.73309773 -13.0625 0.75 C-14.59583984 0.74226563 -14.59583984 0.74226563 -16.16015625 0.734375 C-18.9609578 0.99634818 -20.61590904 1.55925438 -23 3 C-23 2.34 -23 1.68 -23 1 C-23.66 0.67 -24.32 0.34 -25 0 C-17.14358599 -3.49173956 -7.94795054 -2.89016383 0 0 Z " fill="#D9EED8" transform="translate(170,116)"/>
<path d="M0 0 C1.65 0.33 3.3 0.66 5 1 C4.34 2.65 3.68 4.3 3 6 C1.35 6 -0.3 6 -2 6 C-2.12375 7.134375 -2.2475 8.26875 -2.375 9.4375 C-2.58125 10.613125 -2.7875 11.78875 -3 13 C-3.99 13.495 -3.99 13.495 -5 14 C-5 11.36 -5 8.72 -5 6 C-4.34 6 -3.68 6 -3 6 C-2.67 5.34 -2.34 4.68 -2 4 C-1.34 3.34 -0.68 2.68 0 2 C0 1.34 0 0.68 0 0 Z " fill="#377E35" transform="translate(45,122)"/>
<path d="M0 0 C2 2 2 2 2.4375 5.25 C1.85868173 10.21129943 0.57874043 11.58392959 -3 15 C-5.3125 15.875 -5.3125 15.875 -7 16 C-6.03519209 13.84773619 -5.27130555 12.24304456 -3.5 10.65625 C-1.62945569 8.59085733 -1.32460233 7.03058159 -0.8125 4.3125 C-0.65394531 3.50425781 -0.49539062 2.69601563 -0.33203125 1.86328125 C-0.22246094 1.24839844 -0.11289063 0.63351563 0 0 Z " fill="#EBFAEA" transform="translate(66,128)"/>
<path d="M0 0 C0.66 0.33 1.32 0.66 2 1 C1.67 1.66 1.34 2.32 1 3 C0.58703053 6.05597411 0.48952945 8.95346833 1 12 C3.35832772 14.47208796 3.35832772 14.47208796 6 16 C6 16.66 6 17.32 6 18 C2.94334338 17.09126425 1.27694297 16.32469175 -0.8125 13.875 C-2.43989287 9.93499621 -2.34342312 7.25844672 -2 3 C-1.34 2.01 -0.68 1.02 0 0 Z " fill="#DDF3DC" transform="translate(48,126)"/>
<path d="M0 0 C2.5 1.375 2.5 1.375 5 4 C5.99689085 8.88558903 5.73242842 12.76244852 3.1875 17.0625 C1 19 1 19 -2 20 C-2 19.34 -2 18.68 -2 18 C-1.34 18 -0.68 18 0 18 C0.309375 17.195625 0.61875 16.39125 0.9375 15.5625 C2 13 2 13 3 12 C3.36760731 9.67182036 3.70241581 7.3381615 4 5 C3.01 5.33 2.02 5.66 1 6 C0.67 4.02 0.34 2.04 0 0 Z " fill="#E0F8E1" transform="translate(163,124)"/>
<path d="M0 0 C0.33 0 0.66 0 1 0 C1 5.94 1 11.88 1 18 C-2.41796875 18.5859375 -2.41796875 18.5859375 -5.8359375 19.171875 C-8.17709092 19.81749261 -8.17709092 19.81749261 -9.2890625 22.078125 C-9.52367187 22.71234375 -9.75828125 23.3465625 -10 24 C-10.125 21.625 -10.125 21.625 -10 19 C-9.34 18.34 -8.68 17.68 -8 17 C-5.36 17 -2.72 17 0 17 C0 11.39 0 5.78 0 0 Z " fill="#C7EAC6" transform="translate(139,44)"/>
<path d="M0 0 C0 3.74741538 -1.00906102 5.6962959 -3.25 8.64453125 C-5 10 -5 10 -7.48046875 10.07421875 C-8.82044922 9.88279297 -8.82044922 9.88279297 -10.1875 9.6875 C-11.08855469 9.56761719 -11.98960938 9.44773438 -12.91796875 9.32421875 C-13.60503906 9.21722656 -14.29210938 9.11023438 -15 9 C-15 8.67 -15 8.34 -15 8 C-14.39671875 7.91363281 -13.7934375 7.82726562 -13.171875 7.73828125 C-7.76742864 6.8196539 -7.76742864 6.8196539 -3.5625 3.4375 C-3.046875 2.633125 -2.53125 1.82875 -2 1 C-1.34 0.67 -0.68 0.34 0 0 Z " fill="#5D905C" transform="translate(69,136)"/>
<path d="M0 0 C0.33 0 0.66 0 1 0 C1.33820166 1.5823006 1.67035939 3.16589375 2 4.75 C2.185625 5.63171875 2.37125 6.5134375 2.5625 7.421875 C3 10 3 10 3 14 C1 14 1 14 -0.5625 12.625 C-2 11 -2 11 -3 9 C-2.44140625 6.8359375 -2.44140625 6.8359375 -1.5625 4.375 C-1.27503906 3.55773437 -0.98757812 2.74046875 -0.69140625 1.8984375 C-0.46324219 1.27195313 -0.23507813 0.64546875 0 0 Z " fill="#508050" transform="translate(45,129)"/>
<path d="M0 0 C1.09914521 3.29743563 0.84981978 3.82021313 0 7 C-0.14568403 8.95053764 -0.24659467 10.90465065 -0.31640625 12.859375 C-0.35830078 13.97441406 -0.40019531 15.08945313 -0.44335938 16.23828125 C-0.48267578 17.39714844 -0.52199219 18.55601563 -0.5625 19.75 C-0.60568359 20.92433594 -0.64886719 22.09867188 -0.69335938 23.30859375 C-0.79934794 26.20561451 -0.90141638 29.10271935 -1 32 C-1.33 32 -1.66 32 -2 32 C-2.05802751 27.41671978 -2.09360593 22.83353396 -2.125 18.25 C-2.14175781 16.94804688 -2.15851563 15.64609375 -2.17578125 14.3046875 C-2.18222656 13.05429688 -2.18867188 11.80390625 -2.1953125 10.515625 C-2.20578613 9.36352539 -2.21625977 8.21142578 -2.22705078 7.02441406 C-2.00758762 4.10107034 -1.52728122 2.46267491 0 0 Z " fill="#528254" transform="translate(131,64)"/>
<path d="M0 0 C2 1 2 1 3 3 C2.2575 3.5775 1.515 4.155 0.75 4.75 C-1.99198619 6.90659314 -1.99198619 6.90659314 -4.1875 9.25 C-6 11 -6 11 -8 11 C-6.52670958 5.99081256 -3.72484762 3.48192278 0 0 Z " fill="#4F8551" transform="translate(48,117)"/>
<path d="M0 0 C1.9375 0.8125 1.9375 0.8125 4 2 C4.33 2.99 4.66 3.98 5 5 C4.01 5.33 3.02 5.66 2 6 C2 6.99 2 7.98 2 9 C1.34 9 0.68 9 0 9 C-1.125 6.75 -1.125 6.75 -2 4 C-1.125 1.6875 -1.125 1.6875 0 0 Z " fill="#398339" transform="translate(133,63)"/>
<path d="M0 0 C1.98 0 3.96 0 6 0 C6.12375 0.721875 6.2475 1.44375 6.375 2.1875 C6.90206704 5.00813961 6.90206704 5.00813961 8.125 7.5 C9.15203815 10.43439472 8.84240543 12.05158101 8 15 C7.67 15 7.34 15 7 15 C6.91363281 14.39671875 6.82726562 13.7934375 6.73828125 13.171875 C5.82245789 7.74387205 5.82245789 7.74387205 2.375 3.5625 C1.59125 3.046875 0.8075 2.53125 0 2 C0 1.34 0 0.68 0 0 Z " fill="#4A834E" transform="translate(61,122)"/>
<path d="M0 0 C0.33 0 0.66 0 1 0 C1 1.98 1 3.96 1 6 C2.98 4.68 4.96 3.36 7 2 C5.55746343 5.36591866 3.66735273 7.51047079 1 10 C0.01 9.67 -0.98 9.34 -2 9 C-1.34 6.03 -0.68 3.06 0 0 Z " fill="#64AB64" transform="translate(168,131)"/>
<path d="M0 0 C0.66 0.33 1.32 0.66 2 1 C2 4.96 2 8.92 2 13 C1.67 12.01 1.34 11.02 1 10 C0.34 10 -0.32 10 -1 10 C-0.67 6.7 -0.34 3.4 0 0 Z " fill="#46B144" transform="translate(142,46)"/>
<path d="M0 0 C1.32 0.66 2.64 1.32 4 2 C2.9171875 2.5878125 2.9171875 2.5878125 1.8125 3.1875 C-1.227326 5.14649898 -3.52127727 7.37963597 -6 10 C-5.58578031 5.16743695 -3.53586014 3.17320782 0 0 Z " fill="#DFF2DE" transform="translate(47,115)"/>
<path d="M0 0 C0.33 0 0.66 0 1 0 C1 3.63 1 7.26 1 11 C0.01 10.67 -0.98 10.34 -2 10 C-2.1953125 3.9453125 -2.1953125 3.9453125 -2 2 C-1.34 1.34 -0.68 0.68 0 0 Z " fill="#46B146" transform="translate(167,72)"/>
<path d="M0 0 C0.33 0 0.66 0 1 0 C1.061875 1.0725 1.12375 2.145 1.1875 3.25 C1.66145959 7.13531961 1.66145959 7.13531961 4.5625 9.4375 C5.366875 9.953125 6.17125 10.46875 7 11 C6.67 11.66 6.34 12.32 6 13 C2.83884224 11.63016497 2.0072908 11.0109362 0 8 C-0.25760279 5.30547479 -0.08900053 2.71451625 0 0 Z " fill="#E0F7E2" transform="translate(147,130)"/>
<path d="M0 0 C1.875 0.3046875 1.875 0.3046875 3.875 1.8046875 C4.37 2.5471875 4.37 2.5471875 4.875 3.3046875 C3.864375 3.1190625 2.85375 2.9334375 1.8125 2.7421875 C-2.10414227 2.30700503 -5.26744663 2.59615729 -9.125 3.3046875 C-6.73365404 -0.28233145 -3.97335543 -0.13147132 0 0 Z " fill="#E8FAE7" transform="translate(59.125,122.6953125)"/>
<path d="M0 0 C0.80050781 0.12761719 1.60101563 0.25523438 2.42578125 0.38671875 C3.23402344 0.50660156 4.04226562 0.62648438 4.875 0.75 C5.48988281 0.85699219 6.10476562 0.96398437 6.73828125 1.07421875 C6.73828125 1.40421875 6.73828125 1.73421875 6.73828125 2.07421875 C4.82015625 2.53828125 4.82015625 2.53828125 2.86328125 3.01171875 C0.6372645 3.55027119 -1.20911874 4.04791875 -3.26171875 5.07421875 C-3.92171875 4.41421875 -4.58171875 3.75421875 -5.26171875 3.07421875 C-3.53640014 0.90221572 -2.83921072 0.09316926 0 0 Z " fill="#538B53" transform="translate(52.26171875,120.92578125)"/>
<path d="M0 0 C4.95 0.99 4.95 0.99 10 2 C9.01 3.485 9.01 3.485 8 5 C5.36 4.01 2.72 3.02 0 2 C0 1.34 0 0.68 0 0 Z " fill="#E1F6E1" transform="translate(160,114)"/>
<path d="M0 0 C3.73884332 2.65654657 5.64978174 4.58110387 7 9 C6.34 9 5.68 9 5 9 C0 3.64285714 0 3.64285714 0 0 Z " fill="#4E834E" transform="translate(67,119)"/>
<path d="M0 0 C1.4606285 2.64738916 2 3.89448334 2 7 C1.01 7.33 0.02 7.66 -1 8 C-1.66 6.68 -2.32 5.36 -3 4 C-2.01 2.68 -1.02 1.36 0 0 Z " fill="#3A8139" transform="translate(133,97)"/>
<path d="M0 0 C2.475 0.99 2.475 0.99 5 2 C5 4.31 5 6.62 5 9 C2.67527795 6.14693203 1.2491742 3.45925163 0 0 Z " fill="#62AE62" transform="translate(160,72)"/>
<path d="M0 0 C-0.66 2.97 -1.32 5.94 -2 9 C-4 5 -4 5 -5 2 C-2 0 -2 0 0 0 Z " fill="#367E36" transform="translate(147,123)"/>
<path d="M0 0 C0.66 0.99 1.32 1.98 2 3 C-0.52475462 4.26237731 -2.31200466 4.09856404 -5.125 4.0625 C-6.03507813 4.05347656 -6.94515625 4.04445312 -7.8828125 4.03515625 C-8.58148438 4.02355469 -9.28015625 4.01195312 -10 4 C-10 3.67 -10 3.34 -10 3 C-9.04287109 2.80083984 -9.04287109 2.80083984 -8.06640625 2.59765625 C-7.24011719 2.42105469 -6.41382813 2.24445313 -5.5625 2.0625 C-4.73878906 1.88847656 -3.91507813 1.71445313 -3.06640625 1.53515625 C-1.02338796 1.19247006 -1.02338796 1.19247006 0 0 Z " fill="#6EB171" transform="translate(165,141)"/>
<path d="M0 0 C2 2 2 2 2.125 5.625 C2.08375 6.73875 2.0425 7.8525 2 9 C1.01 9 0.02 9 -1 9 C-0.67 6.03 -0.34 3.06 0 0 Z " fill="#D8EDD7" transform="translate(66,128)"/>
<path d="M0 0 C2.15377564 2.62198774 3.40072174 4.64404172 4 8 C2.68 7.67 1.36 7.34 0 7 C0 4.69 0 2.38 0 0 Z " fill="#D9F8D8" transform="translate(162,77)"/>
<path d="M0 0 C2.5 1.25 2.5 1.25 5 3 C5 4.32 5 5.64 5 7 C3 7 3 7 1.4375 5.625 C0 4 0 4 -1 2 C-0.67 1.34 -0.34 0.68 0 0 Z " fill="#4B884A" transform="translate(43,136)"/>
<path d="M0 0 C0.99 0.33 1.98 0.66 3 1 C1.02 3.97 1.02 3.97 -1 7 C-1.66 6.67 -2.32 6.34 -3 6 C-2.42655063 3.13275314 -2.1385485 2.1385485 0 0 Z " fill="#E6F6E6" transform="translate(143,119)"/>
</svg>
